v 0.596538 0.003611 0.102749
v -0.585763 0.003611 -0.102583
v -0.585764 1.203610 -0.102583
v -0.097279 0.003611 0.591234
v 0.108054 0.003611 -0.591069
v 0.108054 1.203610 -0.591068
v 0.596538 1.203610 0.102749
v -0.097279 1.203610 0.591234
vt 0.000100 0.000100
vt 0.999900 0.000100
vt 0.999900 0.999900
vt 0.000100 0.000100
vt 0.999900 0.000100
vt 0.999900 0.999900
vt 0.000100 0.999900
vt 0.000100 0.999900
vn 0.1711 0.0000 -0.9853
vn 0.9853 -0.0000 0.1711
f 1/1/1 2/2/1 3/3/1
f 4/4/2 5/5/2 6/6/2
f 7/7/1 1/1/1 3/3/1
f 8/8/2 4/4/2 6/6/2